<svg width="24" height="24" viewBox="0 0 24 24" fill="none" xmlns="http://www.w3.org/2000/svg">
<path fill-rule="evenodd" clip-rule="evenodd" d="M15.1707 2.67694C15.3542 2.60011 15.5511 2.56055 15.75 2.56055C15.9489 2.56055 16.1458 2.60011 16.3293 2.67694C16.5117 2.75331 16.6772 2.865 16.8163 3.00556L20.9943 7.1836C21.1349 7.32267 21.2466 7.48817 21.323 7.67059C21.3998 7.85407 21.4394 8.051 21.4394 8.24992C21.4394 8.44884 21.3998 8.64576 21.323 8.82924C21.2466 9.01165 21.1349 9.17714 20.9944 9.3162L9.53033 20.7802C9.38968 20.9209 9.19891 20.9999 9 20.9999H4.5C4.10218 20.9999 3.72065 20.8419 3.43934 20.5606C3.15804 20.2793 3 19.8977 3 19.4999V15.3104M15.1707 2.67694C14.9882 2.75332 14.8227 2.86504 14.6836 3.00563L15.1707 2.67694ZM4.5 15.3106V19.4999H8.68934L19.9394 8.2499L19.9353 8.24589L15.75 4.06056L15.746 4.06464L4.5 15.3106Z" fill="#F8F9FC"/>
<path fill-rule="evenodd" clip-rule="evenodd" d="M8.25 20.25C8.25 19.8358 8.58579 19.5 9 19.5H20.25C20.6642 19.5 21 19.8358 21 20.25C21 20.6642 20.6642 21 20.25 21H9C8.58579 21 8.25 20.6642 8.25 20.25Z" fill="#F8F9FC"/>
<path fill-rule="evenodd" clip-rule="evenodd" d="M12.2197 5.46967C12.5126 5.17678 12.9874 5.17678 13.2803 5.46967L18.5303 10.7197C18.8232 11.0126 18.8232 11.4874 18.5303 11.7803C18.2374 12.0732 17.7626 12.0732 17.4697 11.7803L12.2197 6.53033C11.9268 6.23744 11.9268 5.76256 12.2197 5.46967Z" fill="#F8F9FC"/>
</svg>
