<svg width="24" height="24" viewBox="0 0 24 24" fill="none" xmlns="http://www.w3.org/2000/svg">
<path fill-rule="evenodd" clip-rule="evenodd" d="M3 4.5C3 3.67157 3.67157 3 4.5 3H7.5C8.32843 3 9 3.67157 9 4.5V19.5C9 20.3284 8.32843 21 7.5 21H4.5C3.67157 21 3 20.3284 3 19.5V4.5ZM7.5 4.5H4.5V19.5H7.5V4.5Z" fill="#F8F9FC"/>
<path fill-rule="evenodd" clip-rule="evenodd" d="M3 7.5C3 7.08579 3.33579 6.75 3.75 6.75H8.25C8.66421 6.75 9 7.08579 9 7.5C9 7.91421 8.66421 8.25 8.25 8.25H3.75C3.33579 8.25 3 7.91421 3 7.5Z" fill="#F8F9FC"/>
<path fill-rule="evenodd" clip-rule="evenodd" d="M7.5 4.5C7.5 3.67157 8.17157 3 9 3H12C12.8284 3 13.5 3.67157 13.5 4.5V19.5C13.5 20.3284 12.8284 21 12 21H9C8.17157 21 7.5 20.3284 7.5 19.5V4.5ZM12 4.5H9V19.5H12V4.5Z" fill="#F8F9FC"/>
<path fill-rule="evenodd" clip-rule="evenodd" d="M7.5 16.5C7.5 16.0858 7.83579 15.75 8.25 15.75H12.75C13.1642 15.75 13.5 16.0858 13.5 16.5C13.5 16.9142 13.1642 17.25 12.75 17.25H8.25C7.83579 17.25 7.5 16.9142 7.5 16.5Z" fill="#F8F9FC"/>
<path fill-rule="evenodd" clip-rule="evenodd" d="M12.2865 5.40202C12.0711 4.59845 12.5479 3.77241 13.3515 3.55702L16.2615 2.77702C17.0651 2.56163 17.8911 3.03845 18.1065 3.84202L22.0065 18.392C22.2219 19.1956 21.7451 20.0216 20.9415 20.237L18.0315 21.017C17.2279 21.2324 16.4019 20.7556 16.1865 19.952L12.2865 5.40202ZM16.6515 4.23202L13.7415 5.01202L17.6415 19.562L20.5515 18.782L16.6515 4.23202Z" fill="#F8F9FC"/>
<path fill-rule="evenodd" clip-rule="evenodd" d="M21.1242 15.4329C21.2319 15.8329 20.995 16.2444 20.5951 16.3522L16.2451 17.5241C15.8451 17.6318 15.4336 17.3949 15.3258 16.995C15.2181 16.595 15.4549 16.1834 15.8549 16.0757L20.2049 14.9038C20.6049 14.7961 21.0164 15.0329 21.1242 15.4329Z" fill="#F8F9FC"/>
<path fill-rule="evenodd" clip-rule="evenodd" d="M18.7996 6.74381C18.9066 7.14398 18.6688 7.55507 18.2687 7.66201L13.9187 8.82451C13.5185 8.93146 13.1074 8.69375 13.0005 8.29358C12.8935 7.89341 13.1312 7.48231 13.5314 7.37537L17.8814 6.21287C18.2816 6.10593 18.6927 6.34364 18.7996 6.74381Z" fill="#F8F9FC"/>
</svg>
