<svg width="24" height="24" viewBox="0 0 24 24" fill="none" xmlns="http://www.w3.org/2000/svg">
<path fill-rule="evenodd" clip-rule="evenodd" d="M15 6C14.4033 6 13.831 6.23705 13.409 6.65901C12.9871 7.08097 12.75 7.65326 12.75 8.25C12.75 8.66421 12.4142 9 12 9C11.5858 9 11.25 8.66421 11.25 8.25C11.25 7.25544 11.6451 6.30161 12.3484 5.59835C13.0516 4.89509 14.0054 4.5 15 4.5H21C21.3978 4.5 21.7794 4.65804 22.0607 4.93934C22.342 5.22065 22.5 5.60218 22.5 6V18C22.5 18.3978 22.342 18.7794 22.0607 19.0607C21.7794 19.342 21.3978 19.5 21 19.5H15C14.4033 19.5 13.831 19.7371 13.409 20.159C12.9871 20.581 12.75 21.1533 12.75 21.75C12.75 22.1642 12.4142 22.5 12 22.5C11.5858 22.5 11.25 22.1642 11.25 21.75C11.25 20.7554 11.6451 19.8016 12.3484 19.0983C13.0516 18.3951 14.0054 18 15 18H21L21 6L15 6Z" fill="#F8F9FC"/>
<path fill-rule="evenodd" clip-rule="evenodd" d="M1.93934 4.93934C2.22064 4.65804 2.60217 4.5 3 4.5H9C9.99456 4.5 10.9484 4.89509 11.6517 5.59835C12.3549 6.30161 12.75 7.25544 12.75 8.25V21.75C12.75 22.1642 12.4142 22.5 12 22.5C11.5858 22.5 11.25 22.1642 11.25 21.75C11.25 21.1533 11.0129 20.581 10.591 20.159C10.169 19.7371 9.59674 19.5 9 19.5H3C2.60218 19.5 2.22065 19.342 1.93934 19.0607C1.65803 18.7794 1.5 18.3978 1.5 18V6C1.5 5.60218 1.65804 5.22064 1.93934 4.93934ZM11.25 18.75V8.25C11.25 7.65326 11.0129 7.08097 10.591 6.65901C10.169 6.23705 9.59674 6 9 6L3 6V18H9C9.81606 18 10.6047 18.266 11.25 18.75Z" fill="#F8F9FC"/>
</svg>
