<svg width="24" height="24" viewBox="0 0 24 24" fill="none" xmlns="http://www.w3.org/2000/svg">
<path fill-rule="evenodd" clip-rule="evenodd" d="M8.28217 7.53217C8.57506 7.23928 9.04994 7.23928 9.34283 7.53217L13.2803 11.4697C13.5732 11.7626 13.5732 12.2374 13.2803 12.5303L9.34283 16.4678C9.04994 16.7607 8.57506 16.7607 8.28217 16.4678C7.98928 16.1749 7.98928 15.7001 8.28217 15.4072L11.6893 12L8.28217 8.59283C7.98928 8.29994 7.98928 7.82506 8.28217 7.53217Z" fill="#E6E8F2"/>
<path fill-rule="evenodd" clip-rule="evenodd" d="M1.5 12C1.5 11.5858 1.83579 11.25 2.25 11.25H12.75C13.1642 11.25 13.5 11.5858 13.5 12C13.5 12.4142 13.1642 12.75 12.75 12.75H2.25C1.83579 12.75 1.5 12.4142 1.5 12Z" fill="#E6E8F2"/>
<path fill-rule="evenodd" clip-rule="evenodd" d="M12 3.75C12 3.33579 12.3358 3 12.75 3H18C18.3978 3 18.7794 3.15804 19.0607 3.43934C19.342 3.72065 19.5 4.10218 19.5 4.5V19.5C19.5 19.8978 19.342 20.2794 19.0607 20.5607C18.7794 20.842 18.3978 21 18 21H12.75C12.3358 21 12 20.6642 12 20.25C12 19.8358 12.3358 19.5 12.75 19.5H18L18 4.5L12.75 4.5C12.3358 4.5 12 4.16421 12 3.75Z" fill="#E6E8F2"/>
</svg>
