<svg width="24" height="24" viewBox="0 0 24 24" fill="none" xmlns="http://www.w3.org/2000/svg">
<path fill-rule="evenodd" clip-rule="evenodd" d="M5.68934 3.43934C5.97064 3.15804 6.35217 3 6.75 3H17.25C17.6478 3 18.0294 3.15804 18.3107 3.43934C18.592 3.72065 18.75 4.10218 18.75 4.5V21C18.75 21.2726 18.602 21.5238 18.3636 21.656C18.1251 21.7882 17.8337 21.7805 17.6025 21.636L12 18.1344L6.3975 21.636C6.1663 21.7805 5.87489 21.7882 5.63642 21.656C5.39796 21.5238 5.25 21.2726 5.25 21V4.5C5.25 4.10217 5.40804 3.72064 5.68934 3.43934ZM17.25 4.5H6.75L6.75 19.6468L11.6025 16.614C11.8457 16.462 12.1543 16.462 12.3975 16.614L17.25 19.6468V4.5Z" fill="#F8F9FC"/>
</svg>
